<?xml version="1.0" standalone="no"?>
<!DOCTYPE svg PUBLIC "-//W3C//DTD SVG 20010904//EN"
 "http://www.w3.org/TR/2001/REC-SVG-20010904/DTD/svg10.dtd">
<svg version="1.0" xmlns="http://www.w3.org/2000/svg"
 width="512.000000pt" height="214.000000pt" viewBox="0 0 512.000000 214.000000"
 preserveAspectRatio="xMidYMid meet">

<g transform="translate(0.000000,214.000000) scale(0.100000,-0.100000)"
fill="#000000" stroke="none">
<path d="M650 1976 c-239 -61 -439 -255 -507 -490 -28 -95 -31 -228 -7 -325
23 -96 123 -291 206 -403 126 -167 402 -481 442 -503 l37 -20 34 20 c37 22
268 278 378 420 147 189 238 350 268 475 19 78 17 250 -5 330 -60 220 -231
398 -459 477 -90 32 -297 41 -387 19z m275 -231 c138 -36 258 -136 317 -262
61 -129 48 -311 -30 -434 -49 -77 -168 -179 -208 -179 -9 0 -11 26 -7 102 6
140 21 233 42 260 29 38 51 85 51 113 0 27 -9 32 -28 13 -19 -19 -22 -5 -12
57 10 62 6 96 -18 133 -23 35 -54 27 -121 -33 -72 -64 -80 -69 -147 -84 -53
-13 -88 -41 -134 -111 -13 -19 -51 -61 -84 -93 -50 -47 -58 -59 -46 -67 8 -5
26 -10 40 -10 46 -1 55 -14 32 -47 -31 -43 -101 -105 -112 -98 -5 3 -21 25
-35 49 -116 198 -73 462 96 596 122 96 267 130 404 95z"/>
<path d="M2570 1950 c-113 -24 -208 -101 -258 -208 -22 -48 -26 -71 -26 -147
-1 -78 3 -98 27 -151 36 -77 104 -145 182 -181 52 -24 72 -28 150 -28 78 0 99
4 152 29 109 50 182 146 203 268 29 168 -64 341 -214 397 -65 24 -156 33 -216
21z m212 -135 c114 -80 141 -274 54 -388 -60 -79 -151 -110 -253 -87 -214 47
-249 389 -51 489 36 18 57 21 125 19 72 -3 86 -7 125 -33z"/>
<path d="M3370 1949 c-192 -38 -318 -227 -281 -420 51 -260 345 -382 567 -235
44 30 114 114 114 138 0 4 -29 8 -65 8 -63 0 -67 -2 -97 -36 -46 -53 -83 -68
-163 -68 -85 0 -142 27 -191 91 -65 85 -69 234 -10 324 44 66 97 93 186 97 91
5 142 -16 186 -73 25 -34 29 -35 90 -35 69 0 74 5 47 48 -53 86 -136 142 -238
161 -66 12 -82 12 -145 0z"/>
<path d="M1870 1595 l0 -355 175 0 175 0 0 45 0 45 -120 0 -120 0 0 310 0 310
-55 0 -55 0 0 -355z"/>
<path d="M4085 1938 c-74 -206 -245 -690 -245 -693 0 -3 27 -5 59 -5 l60 0 22
70 23 70 152 0 153 0 22 -70 23 -70 62 0 62 0 -31 88 c-18 48 -75 206 -127
352 l-95 265 -68 3 c-48 2 -69 -1 -72 -10z m132 -300 c29 -83 51 -153 49 -155
-2 -2 -53 -2 -113 -1 l-110 3 55 157 c31 87 58 155 61 152 3 -3 29 -73 58
-156z"/>
<path d="M4590 1595 l0 -355 180 0 181 0 -2 45 -3 45 -118 0 -118 0 -2 308 -3
307 -57 3 -58 3 0 -356z"/>
<path d="M2863 930 c-113 -24 -204 -94 -255 -198 -30 -61 -33 -74 -33 -162 0
-88 3 -101 33 -162 92 -187 311 -257 503 -161 103 51 167 139 189 260 31 176
-67 351 -231 408 -53 19 -153 26 -206 15z m139 -160 c70 -20 128 -110 128
-200 0 -163 -163 -262 -296 -180 -68 43 -103 170 -72 261 34 103 129 149 240
119z"/>
<path d="M1857 923 c-4 -3 -7 -165 -7 -360 l0 -353 90 0 90 0 0 150 0 150 135
0 135 0 0 -150 0 -150 85 0 85 0 0 360 0 360 -85 0 -85 0 0 -140 0 -140 -135
0 -135 0 0 140 0 140 -83 0 c-46 0 -87 -3 -90 -7z"/>
<path d="M3370 918 c0 -7 40 -168 88 -358 l89 -345 105 -3 105 -3 58 232 c33
131 61 225 65 218 4 -8 31 -112 60 -232 l52 -218 106 3 106 3 87 335 c49 184
91 345 94 358 5 22 4 22 -88 22 l-94 0 -48 -242 c-26 -134 -51 -249 -54 -256
-4 -7 -34 101 -66 240 l-60 253 -95 3 -96 3 -59 -243 c-32 -134 -61 -249 -65
-256 -4 -8 -28 94 -54 225 -26 131 -49 246 -52 256 -5 14 -18 17 -95 17 -65 0
-89 -3 -89 -12z"/>
<path d="M4480 570 l0 -360 200 0 200 0 0 65 0 64 -112 3 -113 3 -3 293 -2
292 -85 0 -85 0 0 -360z"/>
</g>
</svg>
